<?xml version="1.0" encoding="utf-8"?>
<!-- Generator: Adobe Illustrator 19.1.0, SVG Export Plug-In . SVG Version: 6.00 Build 0)  -->
<svg version="1.1" id="Layer_1" xmlns="http://www.w3.org/2000/svg" xmlns:xlink="http://www.w3.org/1999/xlink" x="0px" y="0px"
	 viewBox="0 0 150.1 157.4" style="enable-background:new 0 0 150.1 157.4;" xml:space="preserve">
<style type="text/css">
	.st0{fill:#FFFFFF;stroke:#FFFFFF;stroke-width:5.756000e-02;}
	.st1{fill:#FFFFFF;}
	.st2{fill:none;stroke:#FFFFFF;stroke-width:0.5;}
</style>
<g>
	<path class="st0" d="M64.3,77.5H46.9c-1.8,0.7-5.9,2.7-5.9,6.5c0,1.3,0.6,2.2,1.1,2.8h12.7L64.3,77.5z"/>
	<path class="st0" d="M103.2,77.5H85.8l9.6,9.4h12.7c0.5-0.6,1.1-1.5,1.1-2.8C109.2,80.2,105,78.2,103.2,77.5z"/>
	<path class="st0" d="M107.1,101v4.6h-10v-4.8h-7.9v4.6H79.1v-4.4H71v4.4H60.9v-4.6H53v4.8H43V101h-8.2c0,8.8,0,9.7,0,11.4
		c0,3.3,1.4,6.7,6.6,8.1c5.2,1.3,24.6,5.9,28.1,6.7c4.7,1.1,5.6,4.8,5.6,4.8s0.9-3.7,5.6-4.8c3.5-0.8,22.9-5.4,28.1-6.7
		c5.2-1.3,6.6-4.8,6.6-8.1c0-1.7,0-2.6,0-11.4H107.1z"/>
	<polygon class="st0" points="67.6,51.7 67.6,54.3 69.4,54.3 69.4,51.5 73.9,51.5 73.9,54.3 76.2,54.3 76.2,51.5 80.8,51.5 
		80.8,54.3 82.5,54.3 82.5,51.7 83.4,51.7 75.1,45.2 75.1,45.2 75.1,45.2 66.7,51.7 	"/>
	<path class="st1" d="M75.1,44.9c0.4,0,0.7-0.3,0.7-0.7c0-0.4-0.3-0.7-0.7-0.7c-0.4,0-0.7,0.3-0.7,0.7
		C74.3,44.5,74.7,44.9,75.1,44.9"/>
	<path class="st1" d="M76.4,40.7c0,0-0.3,0.1-0.5,0.1l0,0c-0.1,0-0.1,0-0.2,0c0,0-0.1,0-0.1,0c0-0.1,0-0.3,0-0.5
		c0-0.2,0.2-0.7,0.2-0.7l0.2-0.4l-0.4,0.1c0,0-0.5,0.1-0.6,0.1c-0.2,0-0.6-0.1-0.6-0.1L74,39.3l0.2,0.4c0,0,0.2,0.5,0.2,0.7
		c0,0.2,0,0.3,0,0.5c0,0-0.1,0-0.1,0c-0.1,0-0.1,0-0.2,0c-0.2,0-0.5-0.1-0.5-0.1l-0.2-0.1v0.9c0,0.2,0,0.7,0,0.7l0,0.3l0.2-0.1
		c0,0,0.3-0.1,0.4-0.2c0.1,0,0.2,0,0.3-0.1c0,0,0,0.1,0,0.1c0,0.1,0,0.2,0,0.2c0,0.2-0.2,0.8-0.2,0.8l-0.1,0.3l0.1,0
		c0.2-0.3,0.5-0.5,0.9-0.5c0.4,0,0.7,0.2,0.9,0.5l0.1,0l-0.1-0.3c0,0-0.2-0.6-0.2-0.8c0-0.1,0-0.2,0-0.2c0,0,0-0.1,0-0.1
		c0.1,0,0.2,0,0.3,0.1c0.1,0,0.4,0.2,0.4,0.2l0.2,0.1l0-0.3c0,0,0-0.5,0-0.7v-0.9L76.4,40.7L76.4,40.7z"/>
	<path class="st1" d="M50.6,54.5c0.5,0,0.9,0.4,0.9,0.9c0,0.5-0.4,0.9-0.9,0.9c-0.5,0-0.9-0.4-0.9-0.9
		C49.7,54.9,50.1,54.5,50.6,54.5"/>
	<polygon class="st1" points="51.1,56.9 50.2,56.9 50.2,60.1 51.1,60.1 51.1,56.9 	"/>
	<path class="st1" d="M99.5,54.5c0.5,0,0.9,0.4,0.9,0.9c0,0.5-0.4,0.9-0.9,0.9c-0.5,0-0.9-0.4-0.9-0.9C98.6,54.9,99,54.5,99.5,54.5"
		/>
	<polygon class="st1" points="100,56.9 99,56.9 99,60.1 100,60.1 100,56.9 	"/>
	<polygon class="st1" points="114.8,1.8 114.8,3.1 112.8,3.1 112.8,1.8 110,1.8 110,3.1 108,3.1 108,1.8 105.2,1.8 105.2,5.2 
		106.5,5.2 106.5,10.3 104.4,10.3 104.4,13.6 100.3,13.6 100.3,10.3 98.2,10.3 98.2,5.2 99.4,5.2 99.4,1.8 96.6,1.8 96.6,3.1 
		94.7,3.1 94.7,1.8 91.8,1.8 91.8,3.1 89.9,3.1 89.9,1.8 87,1.8 87,5.2 88.3,5.2 88.3,10.3 86.2,10.3 86.2,13.6 82.1,13.6 
		82.1,10.3 80,10.3 80,5.2 81.3,5.2 81.3,1.8 78.4,1.8 78.4,3.1 76.5,3.1 76.5,1.8 73.6,1.8 73.6,3.1 71.7,3.1 71.7,1.8 68.8,1.8 
		68.8,5.2 70.1,5.2 70.1,10.3 68,10.3 68,13.6 63.9,13.6 63.9,10.3 61.8,10.3 61.8,5.2 63.1,5.2 63.1,1.8 60.3,1.8 60.3,3.1 
		58.3,3.1 58.3,1.8 55.5,1.8 55.5,3.1 53.5,3.1 53.5,1.8 50.7,1.8 50.7,5.2 52,5.2 52,10.3 49.9,10.3 49.9,13.6 45.8,13.6 
		45.8,10.3 43.7,10.3 43.7,5.2 45,5.2 45,1.8 42.1,1.8 42.1,3.1 40.2,3.1 40.2,1.8 37.3,1.8 37.3,3.1 35.4,3.1 35.4,1.8 32.5,1.8 
		32.5,5.2 33.8,5.2 33.8,13.8 38.8,19.1 38.8,27.3 36.3,27.3 36.3,35.9 113.8,35.9 113.8,27.3 111.4,27.3 111.4,19.1 116.3,13.8 
		116.3,5.2 117.6,5.2 117.6,1.8 114.8,1.8 	"/>
	<polygon class="st0" points="85.4,60.7 85.4,68.7 106.2,68.7 100.2,60.7 	"/>
	<polygon class="st0" points="64.7,60.7 49.9,60.7 43.9,68.7 64.7,68.7 	"/>
	<path class="st0" d="M89.5,87.8c-0.4,0.3-1.4,0.8-2.8,0.8c0,0,0,0,0,0c-1.4,0-2.2-0.4-2.7-0.6c-0.4,0.2-1.4,0.5-2.8,0.5
		c-1.3,0-2.3-0.4-2.8-0.7c-0.5,0.3-1.5,0.7-3.4,0.7c-1.9,0-2.9-0.4-3.4-0.7c-0.5,0.3-1.5,0.7-2.8,0.7c-1.4,0-2.3-0.3-2.8-0.5
		c-0.4,0.2-1.3,0.6-2.7,0.6c-1.4,0-2.3-0.5-2.8-0.8c-0.4,0.2-1.4,0.5-2.3,0.6v11.1h4v4.6h7.3v-4.4h10.9v4.4h7.3v-4.6h4.1V88.4
		C90.9,88.2,90,87.9,89.5,87.8z M64.5,96.8h-3.1v-4.4c0.5-1.5,2.6-1.5,3.1,0V96.8z M70.7,96.8h-3.8v-4.9c0.6-1.9,3.2-1.9,3.8,0V96.8
		z M77,96.8h-3.8v-4.9c0.6-1.9,3.2-1.9,3.8,0V96.8z M83.3,96.8h-3.8v-4.9c0.6-1.9,3.2-1.9,3.8,0V96.8z M88.7,96.8h-3.1v-4.4
		c0.5-1.5,2.6-1.5,3.1,0V96.8z"/>
	<path class="st0" d="M55.6,87.9H42.7v11.7h1.6v4.6h7.2v-4.8h5.7V88.4C56.5,88.3,56,88.1,55.6,87.9z M46.9,94.1h-2.2v-2.5
		c0.3-1,1.8-1,2.2,0V94.1z M51.2,94.1H49v-2.5c0.3-1,1.8-1,2.2,0V94.1z M55.4,94.1h-2.2v-2.5c0.3-1,1.8-1,2.2,0V94.1z"/>
	<path class="st0" d="M94.5,87.9c-0.4,0.2-0.9,0.4-1.6,0.5v11.1h5.6v4.8h7.2v-4.5v-0.2h1.7V87.9H94.5z M96.8,94.1h-2.2v-2.5
		c0.3-1,1.8-1,2.2,0V94.1z M101.1,94.1H99v-2.5c0.3-1,1.8-1,2.2,0V94.1z M105.4,94.1h-2.2v-2.5c0.3-1,1.8-1,2.2,0V94.1z"/>
	<path class="st0" d="M47.7,69.7v6.8h17v-6.8H47.7z M53,74.4h-2.2v-2.5c0.3-1,1.8-1,2.2,0V74.4z M57.3,74.4h-2.2v-2.5
		c0.3-1,1.8-1,2.2,0V74.4z M61.6,74.4h-2.2v-2.5c0.3-1,1.8-1,2.2,0V74.4z"/>
	<path class="st0" d="M85.4,69.7v6.8h17v-6.8H85.4z M90.7,74.4h-2.2v-2.5c0.3-1,1.8-1,2.2,0V74.4z M95,74.4h-2.2v-2.5
		c0.3-1,1.8-1,2.2,0V74.4z M99.2,74.4h-2.2v-2.5c0.3-1,1.8-1,2.2,0V74.4z"/>
	<path class="st0" d="M61.6,87.2c0.4,0.2,1,0.4,1.8,0.4l0,0c1.6,0,2.3-0.5,2.3-0.6l0,0l0,0l0.1-0.1l7.6-16.4L61.6,87.2
		C61.6,87.2,61.6,87.2,61.6,87.2L61.6,87.2z"/>
	<path class="st0" d="M66.9,87.2c0.4,0.1,1.1,0.3,1.9,0.3l0,0c1.3,0,2.4-0.6,2.6-0.7l0,0c0,0,0,0,0,0l0,0l0,0l2.9-16.7L66.9,87.2
		C66.8,87.2,66.9,87.2,66.9,87.2L66.9,87.2z"/>
	<path class="st0" d="M72.5,87.1c0.4,0.2,1.2,0.4,2.5,0.4l0,0c1.5,0,2.3-0.2,2.7-0.4l0,0l-2.7-17.4l-2.7,17.4
		C72.4,87.1,72.5,87.1,72.5,87.1L72.5,87.1z"/>
	<path class="st0" d="M56.1,87c0.3,0.2,0.8,0.3,1.4,0.3l0,0c1,0,2.2-0.4,2.7-0.5l0,0c0.2-0.1,0.3-0.1,0.3-0.1l0,0l0.1,0l11.6-15.6
		L56.1,87C56.1,87,56.1,87,56.1,87L56.1,87z"/>
	<path class="st0" d="M88.5,87.2C88.5,87.2,88.6,87.2,88.5,87.2L76.7,70.5l7.6,16.4l0.1,0.1l0,0l0,0c0,0,0.8,0.6,2.3,0.6l0,0
		C87.5,87.6,88.1,87.4,88.5,87.2L88.5,87.2z"/>
	<path class="st0" d="M83.2,87.2C83.3,87.2,83.3,87.2,83.2,87.2l-7.5-17.2l3,16.7l0,0l0,0c0,0,0,0,0,0l0,0c0.2,0.1,1.2,0.7,2.6,0.7
		l0,0C82.2,87.5,82.8,87.4,83.2,87.2L83.2,87.2z"/>
	<path class="st0" d="M94,87C94,87,94,87,94,87L78,71.1l11.6,15.6l0.1,0l0,0c0,0,0.1,0,0.3,0.1l0,0c0.5,0.2,1.7,0.5,2.7,0.5l0,0
		C93.2,87.4,93.7,87.2,94,87L94,87z"/>
	<path class="st0" d="M65.7,58.3v17.8l8.9-8.7l-1.4-1.4l1.9-1.9l1.9,1.9l-1.4,1.4l8.9,8.7V58.3H65.7z M71.9,62.9h-2.2v-2.5
		c0.3-1,1.8-1,2.2,0V62.9z M76.1,62.9H74v-2.5c0.3-1,1.8-1,2.2,0V62.9z M80.4,62.9h-2.2v-2.5c0.3-1,1.8-1,2.2,0V62.9z"/>
	<polygon class="st1" points="63.9,57.3 86.3,57.3 86.3,52.8 83.6,52.8 83.6,55.3 79.7,55.3 79.7,52.6 77.2,52.6 77.2,55.3 
		72.9,55.3 72.9,52.6 70.4,52.6 70.4,55.3 66.5,55.3 66.5,52.8 63.9,52.8 63.9,57.3 	"/>
	<g>
		<polygon class="st1" points="11.6,155.3 11.6,149.4 4.7,149.4 4.7,155.3 2.6,155.3 2.6,141.7 4.7,141.7 4.7,147.5 11.6,147.5 
			11.6,141.7 13.8,141.7 13.8,155.3 11.6,155.3 		"/>
		<polygon class="st1" points="18.9,155.3 18.9,141.7 26.1,141.7 25.5,143.6 21,143.6 21,147.4 25.5,147.4 25.5,149.3 21,149.3 
			21,153.5 26.2,153.5 26.2,155.3 18.9,155.3 		"/>
		<polygon class="st1" points="30.7,155.3 30.7,141.7 32.8,141.7 32.8,153.5 37.8,153.5 37.8,155.3 30.7,155.3 		"/>
		<path class="st1" d="M44.9,155.5c-1.9,0-3.2-0.6-4-1.2l0.9-1.6c0.7,0.5,1.8,1,3,1c1.1,0,2.4-0.5,2.4-1.7c0-2.1-3.3-2.5-4.9-4.3
			c-0.6-0.6-0.9-1.4-0.9-2.4c0-2,1.5-3.6,4.3-3.6c1.4,0,2.5,0.4,3.2,0.7l0,2c-0.9-0.6-2-0.9-3.1-0.9c-1.2,0-2.1,0.5-2.1,1.6
			c0,2.7,5.9,2.6,5.9,6.8C49.5,154,47.5,155.5,44.9,155.5L44.9,155.5z"/>
		<polygon class="st1" points="53.8,155.3 53.8,141.7 56,141.7 56,155.3 53.8,155.3 		"/>
		<path class="st1" d="M71,155.3l-6.4-8.4c-0.7-0.9-1-1.4-1.4-2h0c0,0.5,0,1.1,0,1.8v8.5h-2.1v-13.6h2.2l6.1,8c0.7,1,1.1,1.5,1.4,2
			h0c0-0.6,0-1.2,0-1.9v-8.2H73v13.6H71L71,155.3z"/>
		<path class="st1" d="M83.8,155.5c-4.1,0-6.8-2.9-6.8-6.8c0-4.1,2.9-7.1,7.4-7.1c1.7,0,3.1,0.4,3.9,0.8l0,2.1c-1-0.5-2.3-1-3.8-1
			c-3.5,0-5.2,2.2-5.2,5.1c0,3.1,1.9,5.2,5,5.2c1,0,1.8-0.2,2.3-0.5v-4.7h2.2v5.8C87.7,154.9,85.9,155.5,83.8,155.5L83.8,155.5z"/>
		<path class="st1" d="M97.7,149.3h-1.8v4.1h1.7c1.8,0,2.6-0.9,2.6-2.2C100.2,150.1,99.3,149.3,97.7,149.3L97.7,149.3z M95.9,143.6
			v3.9h1.5c1,0,2-0.7,2-2c0-1.1-0.7-1.9-2.2-1.9H95.9L95.9,143.6z M97.7,155.3h-4v-13.6h4.1c2.6,0,3.8,1.7,3.8,3.3
			c0,1.3-0.6,2.4-1.7,2.9v0c1.4,0.3,2.6,1.6,2.6,3.3C102.5,153.2,101.2,155.3,97.7,155.3L97.7,155.3z"/>
		<path class="st1" d="M112.5,143.5c-2.7,0-4.6,1.9-4.6,5.1c0,3.2,1.8,5.1,4.6,5.1c2.7,0,4.6-1.9,4.6-5.1
			C117.1,145.5,115.4,143.5,112.5,143.5L112.5,143.5z M107.6,143.6c1.2-1.2,2.9-2,4.9-2c2.1,0,3.9,0.8,5.2,2.1
			c1.1,1.2,1.7,2.9,1.7,4.8c0,2-0.7,3.8-2,5.1c-1.2,1.2-2.9,1.9-4.9,1.9c-1.9,0-3.5-0.6-4.7-1.7c-1.4-1.3-2.1-3.1-2.1-5.2
			C105.7,146.6,106.4,144.8,107.6,143.6L107.6,143.6z"/>
		<path class="st1" d="M126.8,143.6h-1.2v4.5h1.3c1.4,0,2.4-1.1,2.4-2.4C129.3,144.6,128.5,143.6,126.8,143.6L126.8,143.6z
			 M130.5,155.3c-2.1-3.5-3.2-5.4-3.7-5.5h-1.3v5.5h-2.2v-13.6h3.4c3.4,0,4.7,1.7,4.7,3.8c0,1.9-1.2,3.1-2.6,3.6v0
			c0.6,0.3,2,2.7,4.1,6.2H130.5L130.5,155.3z"/>
		<path class="st1" d="M142.5,155.5c-4.2,0-6.8-2.9-6.8-6.8c0-4.1,3-7.1,7.4-7.1c1.7,0,3.1,0.4,3.9,0.8l0,2.1c-1-0.5-2.3-1-3.8-1
			c-3.5,0-5.2,2.2-5.2,5.1c0,3.1,1.9,5.2,5,5.2c1,0,1.8-0.2,2.3-0.5v-4.7h2.2v5.8C146.4,154.9,144.6,155.5,142.5,155.5L142.5,155.5z
			"/>
	</g>
	<path class="st2" d="M115.3,35.9H75.1l0,0h0l0,0H34.8c0,73.1,0,73.1,0,76.6c0,3.3,1.3,6.7,6.5,8.1c5.2,1.3,24.6,5.9,28.1,6.7
		c4.6,1.1,5.6,4.8,5.6,4.8s1-3.7,5.6-4.8c3.5-0.8,22.9-5.4,28.1-6.7c5.2-1.3,6.6-4.8,6.6-8.1C115.3,109,115.3,109,115.3,35.9
		L115.3,35.9z"/>
</g>
</svg>
